<svg width="25" height="23" viewBox="0 0 25 23" fill="none" xmlns="http://www.w3.org/2000/svg">
<path d="M23.5339 1.39106C21.1554 1.52604 16.428 2.01736 13.5095 3.80382C13.3082 3.92708 13.194 4.14627 13.194 4.37543V20.1684C13.194 20.6697 13.7422 20.9865 14.2044 20.7539C17.207 19.2426 21.5495 18.8303 23.6966 18.7174C24.4297 18.6788 24.9996 18.0911 24.9996 17.3867V2.72352C25 1.95486 24.3333 1.34592 23.5339 1.39106ZM11.49 3.80382C8.57205 2.01736 3.84462 1.52648 1.46615 1.39106C0.666667 1.34592 0 1.95486 0 2.72352V17.3871C0 18.092 0.569879 18.6797 1.30295 18.7179C3.45095 18.8307 7.79557 19.2435 10.7982 20.7556C11.2591 20.9878 11.8056 20.6714 11.8056 20.1714V4.36762C11.8056 4.13802 11.6918 3.92752 11.49 3.80382Z" fill="#5B5B5B"/>
</svg>
