<svg width="25" height="20" viewBox="0 0 25 20" fill="none" xmlns="http://www.w3.org/2000/svg">
<g clip-path="url(#clip0_1_48)">
<path d="M20.0351 7.5C19.4531 7.49609 18.8984 7.58984 18.3789 7.76953L17.0937 5.625H20.3125C20.832 5.625 21.25 5.20703 21.25 4.6875V3.4375C21.25 2.91797 20.832 2.5 20.3125 2.5H18.5429C18.2773 2.5 18.0234 2.61328 17.8476 2.80859L16.3828 4.4375L15.4922 2.95312C15.3203 2.67187 15.0156 2.5 14.6875 2.5H11.5625C11.2187 2.5 10.9375 2.78125 10.9375 3.125V3.75C10.9375 4.09375 11.2187 4.375 11.5625 4.375H14.1562L14.9062 5.625H8.90232C8.21091 4.72266 7.14841 4.0625 4.99998 4.0625H2.83201C2.30467 4.0625 1.86326 4.49219 1.87498 5.01953C1.88279 5.52734 2.30076 5.9375 2.81248 5.9375H4.99998C5.95701 5.9375 6.51169 6.36328 6.86716 6.90625L6.42576 7.70703C5.91794 7.55469 5.37498 7.48438 4.81248 7.50391C2.18357 7.59766 0.0624831 9.75 -1.68628e-05 12.3828C-0.0625168 15.1992 2.1992 17.5 4.99998 17.5C7.3281 17.5 9.28513 15.9062 9.84372 13.75H13.1328C13.6679 13.75 14.0937 13.3047 14.0703 12.7695C13.9882 10.9297 14.7539 9.10937 16.2656 7.88672L16.7539 8.69922C15.6757 9.625 14.9922 11 15.0039 12.5352C15.0234 15.2539 17.2382 17.4766 19.957 17.5C22.7539 17.5273 25.0273 15.2539 25.0039 12.457C24.9765 9.73828 22.7539 7.51953 20.0351 7.5ZM4.99998 15.625C3.27732 15.625 1.87498 14.2227 1.87498 12.5C1.87498 10.7773 3.27732 9.375 4.99998 9.375C5.16404 9.375 5.3281 9.38672 5.48826 9.41406L3.86717 12.3594C3.52342 12.9844 3.97654 13.75 4.68748 13.75H7.86325C7.37888 14.8516 6.27732 15.625 4.99998 15.625ZM23.121 12.6719C23.0351 14.2578 21.7539 15.5391 20.1718 15.6211C18.3711 15.7188 16.875 14.2812 16.875 12.5C16.875 11.6641 17.2031 10.9062 17.7382 10.3477L19.6679 13.5664C19.8437 13.8633 20.2304 13.957 20.5273 13.7812L21.0625 13.4609C21.3593 13.2852 21.4531 12.8984 21.2773 12.6016L19.3789 9.44141C19.582 9.39844 19.789 9.37891 20 9.37891C21.7812 9.375 23.2148 10.8711 23.121 12.6719Z" fill="#5B5B5B"/>
</g>
<defs>
<clipPath id="clip0_1_48">
<rect width="25" height="20" fill="white"/>
</clipPath>
</defs>
</svg>
